<svg width="64" height="64" viewBox="0 0 64 64" fill="none" xmlns="http://www.w3.org/2000/svg">
<path d="M56.3809 0H7.61902C3.41787 0 -3.05176e-05 3.4179 -3.05176e-05 7.61905V56.381C-3.05176e-05 60.5821 3.41787 64 7.61902 64H56.3809C60.5821 64 64 60.5821 64 56.381V7.61905C64 3.4179 60.5821 0 56.3809 0ZM50.2948 27.9208C49.9454 27.9547 49.5945 27.9725 49.2434 27.9741C47.3477 27.9744 45.4817 27.5025 43.8139 26.6012C42.1461 25.6999 40.7291 24.3974 39.6906 22.8114V40.3916C39.6906 42.9615 38.9286 45.4737 37.5008 47.6104C36.0731 49.7472 34.0438 51.4126 31.6695 52.3961C29.2953 53.3795 26.6827 53.6368 24.1622 53.1355C21.6417 52.6341 19.3265 51.3966 17.5093 49.5794C15.6921 47.7623 14.4546 45.447 13.9533 42.9265C13.4519 40.406 13.7092 37.7935 14.6927 35.4192C15.6761 33.045 17.3415 31.0156 19.4783 29.5879C21.6151 28.1602 24.1272 27.3981 26.6971 27.3981C26.9683 27.3981 27.2335 27.4225 27.5002 27.4392V33.8423C27.2335 33.8103 26.9714 33.7615 26.6971 33.7615C24.9383 33.7615 23.2515 34.4602 22.0078 35.7039C20.7642 36.9476 20.0655 38.6343 20.0655 40.3931C20.0655 42.152 20.7642 43.8387 22.0078 45.0824C23.2515 46.3261 24.9383 47.0248 26.6971 47.0248C30.3603 47.0248 33.5954 44.1387 33.5954 40.4754L33.6594 10.6179H39.7851C40.065 13.2795 41.2715 15.7581 43.1938 17.6202C45.1161 19.4823 47.6317 20.6094 50.3009 20.8046V27.9208" fill="black"/>
</svg>
